<mxfile host="app.diagrams.net" agent="Mozilla/5.0 (X11; Linux x86_64) AppleWebKit/537.36 (KHTML, like Gecko) Chrome/138.0.0.0 Safari/537.36 OPR/122.0.0.0" version="28.2.8">
  <diagram name="PÃ¡gina-1" id="Nhd8CYgIMyzsmCHDjpIA">
    <mxGraphModel dx="1133" dy="1130" grid="1" gridSize="10" guides="1" tooltips="1" connect="1" arrows="1" fold="1" page="1" pageScale="1" pageWidth="827" pageHeight="1169" math="0" shadow="0">
      <root>
        <mxCell id="0" />
        <mxCell id="1" parent="0" />
        <mxCell id="RezQsv1CiJIYr9o7iqg_-226" value="Domain (CDP)" style="shape=folder;fontStyle=1;spacingTop=10;tabWidth=40;tabHeight=14;tabPosition=left;html=1;whiteSpace=wrap;verticalAlign=top;" parent="1" vertex="1">
          <mxGeometry x="1090" y="1120" width="2820" height="910" as="geometry" />
        </mxCell>
        <mxCell id="zKRFpH8LsfMyVIRQmf_E-7" value="ControleInterno" style="swimlane;whiteSpace=wrap;html=1;" parent="1" vertex="1">
          <mxGeometry x="1060" y="960" width="1140" height="1120" as="geometry" />
        </mxCell>
        <mxCell id="zKRFpH8LsfMyVIRQmf_E-9" value="Entities" style="shape=folder;fontStyle=1;spacingTop=10;tabWidth=40;tabHeight=14;tabPosition=left;html=1;whiteSpace=wrap;align=center;verticalAlign=top;" parent="zKRFpH8LsfMyVIRQmf_E-7" vertex="1">
          <mxGeometry x="110" y="207.5" width="960" height="705" as="geometry" />
        </mxCell>
        <mxCell id="zKRFpH8LsfMyVIRQmf_E-39" style="edgeStyle=orthogonalEdgeStyle;rounded=0;orthogonalLoop=1;jettySize=auto;html=1;exitX=0.5;exitY=1;exitDx=0;exitDy=0;startArrow=block;startFill=0;endArrow=none;endFill=0;fillColor=#ffe6cc;strokeColor=#d79b00;" parent="zKRFpH8LsfMyVIRQmf_E-7" source="zKRFpH8LsfMyVIRQmf_E-22" target="zKRFpH8LsfMyVIRQmf_E-37" edge="1">
          <mxGeometry relative="1" as="geometry" />
        </mxCell>
        <mxCell id="zKRFpH8LsfMyVIRQmf_E-40" style="edgeStyle=orthogonalEdgeStyle;rounded=0;orthogonalLoop=1;jettySize=auto;html=1;exitX=0.5;exitY=1;exitDx=0;exitDy=0;entryX=0.5;entryY=0;entryDx=0;entryDy=0;startArrow=block;startFill=0;endArrow=none;endFill=0;fillColor=#ffe6cc;strokeColor=#d79b00;" parent="zKRFpH8LsfMyVIRQmf_E-7" source="zKRFpH8LsfMyVIRQmf_E-22" target="zKRFpH8LsfMyVIRQmf_E-33" edge="1">
          <mxGeometry relative="1" as="geometry" />
        </mxCell>
        <mxCell id="zKRFpH8LsfMyVIRQmf_E-41" style="edgeStyle=orthogonalEdgeStyle;rounded=0;orthogonalLoop=1;jettySize=auto;html=1;exitX=0.5;exitY=1;exitDx=0;exitDy=0;startArrow=block;startFill=0;endArrow=none;endFill=0;fillColor=#ffe6cc;strokeColor=#d79b00;" parent="zKRFpH8LsfMyVIRQmf_E-7" source="zKRFpH8LsfMyVIRQmf_E-22" target="zKRFpH8LsfMyVIRQmf_E-38" edge="1">
          <mxGeometry relative="1" as="geometry" />
        </mxCell>
        <mxCell id="zKRFpH8LsfMyVIRQmf_E-42" style="edgeStyle=orthogonalEdgeStyle;rounded=0;orthogonalLoop=1;jettySize=auto;html=1;exitX=0.5;exitY=1;exitDx=0;exitDy=0;startArrow=block;startFill=0;endArrow=none;endFill=0;fillColor=#ffe6cc;strokeColor=#d79b00;" parent="zKRFpH8LsfMyVIRQmf_E-7" source="zKRFpH8LsfMyVIRQmf_E-22" target="zKRFpH8LsfMyVIRQmf_E-36" edge="1">
          <mxGeometry relative="1" as="geometry" />
        </mxCell>
        <mxCell id="zKRFpH8LsfMyVIRQmf_E-22" value="Funcionario" style="swimlane;fontStyle=0;childLayout=stackLayout;horizontal=1;startSize=26;horizontalStack=0;resizeParent=1;resizeParentMax=0;resizeLast=0;collapsible=1;marginBottom=0;whiteSpace=wrap;html=1;fillColor=#ffe6cc;strokeColor=#d79b00;" parent="zKRFpH8LsfMyVIRQmf_E-7" vertex="1">
          <mxGeometry x="275" y="551.5" width="170" height="78" as="geometry">
            <mxRectangle x="329.25" y="409" width="100" height="30" as="alternateBounds" />
          </mxGeometry>
        </mxCell>
        <mxCell id="zKRFpH8LsfMyVIRQmf_E-24" value="+ dataAdmissao: Date" style="text;align=left;verticalAlign=top;spacingLeft=4;spacingRight=4;overflow=hidden;rotatable=0;points=[[0,0.5],[1,0.5]];portConstraint=eastwest;whiteSpace=wrap;html=1;fillColor=#ffe6cc;strokeColor=#d79b00;" parent="zKRFpH8LsfMyVIRQmf_E-22" vertex="1">
          <mxGeometry y="26" width="170" height="26" as="geometry" />
        </mxCell>
        <mxCell id="zKRFpH8LsfMyVIRQmf_E-25" value="+ dataDemissao: Date" style="text;align=left;verticalAlign=top;spacingLeft=4;spacingRight=4;overflow=hidden;rotatable=0;points=[[0,0.5],[1,0.5]];portConstraint=eastwest;whiteSpace=wrap;html=1;fillColor=#ffe6cc;strokeColor=#d79b00;" parent="zKRFpH8LsfMyVIRQmf_E-22" vertex="1">
          <mxGeometry y="52" width="170" height="26" as="geometry" />
        </mxCell>
        <mxCell id="zKRFpH8LsfMyVIRQmf_E-33" value="Veterinario" style="swimlane;fontStyle=0;childLayout=stackLayout;horizontal=1;startSize=26;horizontalStack=0;resizeParent=1;resizeParentMax=0;resizeLast=0;collapsible=1;marginBottom=0;whiteSpace=wrap;html=1;fillColor=#ffe6cc;strokeColor=#d79b00;" parent="zKRFpH8LsfMyVIRQmf_E-7" vertex="1">
          <mxGeometry x="250" y="835" width="100" height="50" as="geometry" />
        </mxCell>
        <mxCell id="zKRFpH8LsfMyVIRQmf_E-36" value="BanhistaTosador" style="swimlane;fontStyle=0;childLayout=stackLayout;horizontal=1;startSize=26;horizontalStack=0;resizeParent=1;resizeParentMax=0;resizeLast=0;collapsible=1;marginBottom=0;whiteSpace=wrap;html=1;fillColor=#ffe6cc;strokeColor=#d79b00;" parent="zKRFpH8LsfMyVIRQmf_E-7" vertex="1">
          <mxGeometry x="370" y="835" width="100" height="50" as="geometry" />
        </mxCell>
        <mxCell id="zKRFpH8LsfMyVIRQmf_E-37" value="Gerente" style="swimlane;fontStyle=0;childLayout=stackLayout;horizontal=1;startSize=26;horizontalStack=0;resizeParent=1;resizeParentMax=0;resizeLast=0;collapsible=1;marginBottom=0;whiteSpace=wrap;html=1;fillColor=#ffe6cc;strokeColor=#d79b00;" parent="zKRFpH8LsfMyVIRQmf_E-7" vertex="1">
          <mxGeometry x="130" y="835" width="100" height="50" as="geometry" />
        </mxCell>
        <mxCell id="zKRFpH8LsfMyVIRQmf_E-38" value="Vendedor" style="swimlane;fontStyle=0;childLayout=stackLayout;horizontal=1;startSize=26;horizontalStack=0;resizeParent=1;resizeParentMax=0;resizeLast=0;collapsible=1;marginBottom=0;whiteSpace=wrap;html=1;fillColor=#ffe6cc;strokeColor=#d79b00;" parent="zKRFpH8LsfMyVIRQmf_E-7" vertex="1">
          <mxGeometry x="490" y="835" width="100" height="50" as="geometry" />
        </mxCell>
        <mxCell id="RezQsv1CiJIYr9o7iqg_-2" style="edgeStyle=orthogonalEdgeStyle;rounded=0;orthogonalLoop=1;jettySize=auto;html=1;exitX=0;exitY=0.5;exitDx=0;exitDy=0;entryX=1;entryY=0.5;entryDx=0;entryDy=0;endArrow=none;endFill=0;" parent="zKRFpH8LsfMyVIRQmf_E-7" source="zKRFpH8LsfMyVIRQmf_E-46" target="zKRFpH8LsfMyVIRQmf_E-22" edge="1">
          <mxGeometry relative="1" as="geometry" />
        </mxCell>
        <mxCell id="RezQsv1CiJIYr9o7iqg_-3" value="*:1" style="edgeLabel;html=1;align=center;verticalAlign=middle;resizable=0;points=[];" parent="RezQsv1CiJIYr9o7iqg_-2" vertex="1" connectable="0">
          <mxGeometry x="-0.2015" y="-1" relative="1" as="geometry">
            <mxPoint x="-25" y="14" as="offset" />
          </mxGeometry>
        </mxCell>
        <mxCell id="zKRFpH8LsfMyVIRQmf_E-46" value="Filial" style="swimlane;fontStyle=0;childLayout=stackLayout;horizontal=1;startSize=26;horizontalStack=0;resizeParent=1;resizeParentMax=0;resizeLast=0;collapsible=1;marginBottom=0;whiteSpace=wrap;html=1;fillColor=#ffe6cc;strokeColor=#d79b00;" parent="zKRFpH8LsfMyVIRQmf_E-7" vertex="1">
          <mxGeometry x="670" y="499.5" width="170" height="182" as="geometry">
            <mxRectangle x="724.25" y="285" width="100" height="30" as="alternateBounds" />
          </mxGeometry>
        </mxCell>
        <mxCell id="zKRFpH8LsfMyVIRQmf_E-47" value="+ nome: String" style="text;align=left;verticalAlign=top;spacingLeft=4;spacingRight=4;overflow=hidden;rotatable=0;points=[[0,0.5],[1,0.5]];portConstraint=eastwest;whiteSpace=wrap;html=1;fillColor=#ffe6cc;strokeColor=#d79b00;" parent="zKRFpH8LsfMyVIRQmf_E-46" vertex="1">
          <mxGeometry y="26" width="170" height="26" as="geometry" />
        </mxCell>
        <mxCell id="zKRFpH8LsfMyVIRQmf_E-66" value="+ cnpj: String" style="text;align=left;verticalAlign=top;spacingLeft=4;spacingRight=4;overflow=hidden;rotatable=0;points=[[0,0.5],[1,0.5]];portConstraint=eastwest;whiteSpace=wrap;html=1;fillColor=#ffe6cc;strokeColor=#d79b00;" parent="zKRFpH8LsfMyVIRQmf_E-46" vertex="1">
          <mxGeometry y="52" width="170" height="26" as="geometry" />
        </mxCell>
        <mxCell id="zKRFpH8LsfMyVIRQmf_E-70" value="+ disponivel: Boolean" style="text;align=left;verticalAlign=top;spacingLeft=4;spacingRight=4;overflow=hidden;rotatable=0;points=[[0,0.5],[1,0.5]];portConstraint=eastwest;whiteSpace=wrap;html=1;fillColor=#ffe6cc;strokeColor=#d79b00;" parent="zKRFpH8LsfMyVIRQmf_E-46" vertex="1">
          <mxGeometry y="78" width="170" height="26" as="geometry" />
        </mxCell>
        <mxCell id="zKRFpH8LsfMyVIRQmf_E-65" value="+ endereco: String" style="text;align=left;verticalAlign=top;spacingLeft=4;spacingRight=4;overflow=hidden;rotatable=0;points=[[0,0.5],[1,0.5]];portConstraint=eastwest;whiteSpace=wrap;html=1;fillColor=#ffe6cc;strokeColor=#d79b00;" parent="zKRFpH8LsfMyVIRQmf_E-46" vertex="1">
          <mxGeometry y="104" width="170" height="26" as="geometry" />
        </mxCell>
        <mxCell id="zKRFpH8LsfMyVIRQmf_E-64" value="+ email: String" style="text;align=left;verticalAlign=top;spacingLeft=4;spacingRight=4;overflow=hidden;rotatable=0;points=[[0,0.5],[1,0.5]];portConstraint=eastwest;whiteSpace=wrap;html=1;fillColor=#ffe6cc;strokeColor=#d79b00;" parent="zKRFpH8LsfMyVIRQmf_E-46" vertex="1">
          <mxGeometry y="130" width="170" height="26" as="geometry" />
        </mxCell>
        <mxCell id="zKRFpH8LsfMyVIRQmf_E-48" value="+ telefone: String" style="text;align=left;verticalAlign=top;spacingLeft=4;spacingRight=4;overflow=hidden;rotatable=0;points=[[0,0.5],[1,0.5]];portConstraint=eastwest;whiteSpace=wrap;html=1;fillColor=#ffe6cc;strokeColor=#d79b00;" parent="zKRFpH8LsfMyVIRQmf_E-46" vertex="1">
          <mxGeometry y="156" width="170" height="26" as="geometry" />
        </mxCell>
        <mxCell id="RezQsv1CiJIYr9o7iqg_-8" style="edgeStyle=orthogonalEdgeStyle;rounded=0;orthogonalLoop=1;jettySize=auto;html=1;exitX=1;exitY=0.5;exitDx=0;exitDy=0;entryX=0.5;entryY=0;entryDx=0;entryDy=0;endArrow=none;endFill=0;" parent="zKRFpH8LsfMyVIRQmf_E-7" source="zKRFpH8LsfMyVIRQmf_E-49" target="zKRFpH8LsfMyVIRQmf_E-58" edge="1">
          <mxGeometry relative="1" as="geometry" />
        </mxCell>
        <mxCell id="RezQsv1CiJIYr9o7iqg_-13" value="1:*" style="edgeLabel;html=1;align=center;verticalAlign=middle;resizable=0;points=[];" parent="RezQsv1CiJIYr9o7iqg_-8" vertex="1" connectable="0">
          <mxGeometry x="0.0139" y="-2" relative="1" as="geometry">
            <mxPoint x="-5" y="-2" as="offset" />
          </mxGeometry>
        </mxCell>
        <mxCell id="RezQsv1CiJIYr9o7iqg_-9" style="edgeStyle=orthogonalEdgeStyle;rounded=0;orthogonalLoop=1;jettySize=auto;html=1;exitX=0;exitY=1;exitDx=0;exitDy=0;entryX=0.5;entryY=0;entryDx=0;entryDy=0;endArrow=none;endFill=0;" parent="zKRFpH8LsfMyVIRQmf_E-7" source="zKRFpH8LsfMyVIRQmf_E-49" target="zKRFpH8LsfMyVIRQmf_E-46" edge="1">
          <mxGeometry relative="1" as="geometry" />
        </mxCell>
        <mxCell id="RezQsv1CiJIYr9o7iqg_-12" value="*:1" style="edgeLabel;html=1;align=center;verticalAlign=middle;resizable=0;points=[];" parent="RezQsv1CiJIYr9o7iqg_-9" vertex="1" connectable="0">
          <mxGeometry x="-0.0669" y="-1" relative="1" as="geometry">
            <mxPoint as="offset" />
          </mxGeometry>
        </mxCell>
        <mxCell id="RezQsv1CiJIYr9o7iqg_-209" style="edgeStyle=orthogonalEdgeStyle;rounded=0;orthogonalLoop=1;jettySize=auto;html=1;exitX=0;exitY=0.5;exitDx=0;exitDy=0;entryX=1;entryY=0;entryDx=0;entryDy=0;endArrow=none;endFill=0;" parent="zKRFpH8LsfMyVIRQmf_E-7" source="zKRFpH8LsfMyVIRQmf_E-49" target="zKRFpH8LsfMyVIRQmf_E-38" edge="1">
          <mxGeometry relative="1" as="geometry">
            <Array as="points">
              <mxPoint x="590" y="325.5" />
            </Array>
          </mxGeometry>
        </mxCell>
        <mxCell id="RezQsv1CiJIYr9o7iqg_-233" value="0...1:1" style="edgeLabel;html=1;align=center;verticalAlign=middle;resizable=0;points=[];" parent="RezQsv1CiJIYr9o7iqg_-209" vertex="1" connectable="0">
          <mxGeometry x="-0.8662" y="-3" relative="1" as="geometry">
            <mxPoint x="-6" y="-10" as="offset" />
          </mxGeometry>
        </mxCell>
        <mxCell id="zKRFpH8LsfMyVIRQmf_E-49" value="Produto" style="swimlane;fontStyle=0;childLayout=stackLayout;horizontal=1;startSize=26;horizontalStack=0;resizeParent=1;resizeParentMax=0;resizeLast=0;collapsible=1;marginBottom=0;whiteSpace=wrap;html=1;fillColor=#ffe6cc;strokeColor=#d79b00;" parent="zKRFpH8LsfMyVIRQmf_E-7" vertex="1">
          <mxGeometry x="670" y="247.5" width="170" height="156" as="geometry">
            <mxRectangle x="724.25" y="92.5" width="100" height="30" as="alternateBounds" />
          </mxGeometry>
        </mxCell>
        <mxCell id="zKRFpH8LsfMyVIRQmf_E-50" value="+ nome: String" style="text;align=left;verticalAlign=top;spacingLeft=4;spacingRight=4;overflow=hidden;rotatable=0;points=[[0,0.5],[1,0.5]];portConstraint=eastwest;whiteSpace=wrap;html=1;fillColor=#ffe6cc;strokeColor=#d79b00;" parent="zKRFpH8LsfMyVIRQmf_E-49" vertex="1">
          <mxGeometry y="26" width="170" height="26" as="geometry" />
        </mxCell>
        <mxCell id="zKRFpH8LsfMyVIRQmf_E-67" value="+ codigo: String" style="text;align=left;verticalAlign=top;spacingLeft=4;spacingRight=4;overflow=hidden;rotatable=0;points=[[0,0.5],[1,0.5]];portConstraint=eastwest;whiteSpace=wrap;html=1;fillColor=#ffe6cc;strokeColor=#d79b00;" parent="zKRFpH8LsfMyVIRQmf_E-49" vertex="1">
          <mxGeometry y="52" width="170" height="26" as="geometry" />
        </mxCell>
        <mxCell id="zKRFpH8LsfMyVIRQmf_E-79" value="+ quantidadeEstoque: Int" style="text;align=left;verticalAlign=top;spacingLeft=4;spacingRight=4;overflow=hidden;rotatable=0;points=[[0,0.5],[1,0.5]];portConstraint=eastwest;whiteSpace=wrap;html=1;fillColor=#ffe6cc;strokeColor=#d79b00;" parent="zKRFpH8LsfMyVIRQmf_E-49" vertex="1">
          <mxGeometry y="78" width="170" height="26" as="geometry" />
        </mxCell>
        <mxCell id="zKRFpH8LsfMyVIRQmf_E-68" value="+ descricao: String" style="text;align=left;verticalAlign=top;spacingLeft=4;spacingRight=4;overflow=hidden;rotatable=0;points=[[0,0.5],[1,0.5]];portConstraint=eastwest;whiteSpace=wrap;html=1;fillColor=#ffe6cc;strokeColor=#d79b00;" parent="zKRFpH8LsfMyVIRQmf_E-49" vertex="1">
          <mxGeometry y="104" width="170" height="26" as="geometry" />
        </mxCell>
        <mxCell id="zKRFpH8LsfMyVIRQmf_E-69" value="+ Linkmagem: String" style="text;align=left;verticalAlign=top;spacingLeft=4;spacingRight=4;overflow=hidden;rotatable=0;points=[[0,0.5],[1,0.5]];portConstraint=eastwest;whiteSpace=wrap;html=1;fillColor=#ffe6cc;strokeColor=#d79b00;" parent="zKRFpH8LsfMyVIRQmf_E-49" vertex="1">
          <mxGeometry y="130" width="170" height="26" as="geometry" />
        </mxCell>
        <mxCell id="zKRFpH8LsfMyVIRQmf_E-58" value="PrecoProduto" style="swimlane;fontStyle=0;childLayout=stackLayout;horizontal=1;startSize=26;horizontalStack=0;resizeParent=1;resizeParentMax=0;resizeLast=0;collapsible=1;marginBottom=0;whiteSpace=wrap;html=1;fillColor=#ffe6cc;strokeColor=#d79b00;" parent="zKRFpH8LsfMyVIRQmf_E-7" vertex="1">
          <mxGeometry x="870" y="352.5" width="170" height="78" as="geometry">
            <mxRectangle x="924.25" y="202" width="100" height="30" as="alternateBounds" />
          </mxGeometry>
        </mxCell>
        <mxCell id="zKRFpH8LsfMyVIRQmf_E-59" value="+ preco: Float" style="text;align=left;verticalAlign=top;spacingLeft=4;spacingRight=4;overflow=hidden;rotatable=0;points=[[0,0.5],[1,0.5]];portConstraint=eastwest;whiteSpace=wrap;html=1;fillColor=#ffe6cc;strokeColor=#d79b00;" parent="zKRFpH8LsfMyVIRQmf_E-58" vertex="1">
          <mxGeometry y="26" width="170" height="26" as="geometry" />
        </mxCell>
        <mxCell id="zKRFpH8LsfMyVIRQmf_E-60" value="+ data: Date" style="text;align=left;verticalAlign=top;spacingLeft=4;spacingRight=4;overflow=hidden;rotatable=0;points=[[0,0.5],[1,0.5]];portConstraint=eastwest;whiteSpace=wrap;html=1;fillColor=#ffe6cc;strokeColor=#d79b00;" parent="zKRFpH8LsfMyVIRQmf_E-58" vertex="1">
          <mxGeometry y="52" width="170" height="26" as="geometry" />
        </mxCell>
        <mxCell id="RezQsv1CiJIYr9o7iqg_-6" style="edgeStyle=orthogonalEdgeStyle;rounded=0;orthogonalLoop=1;jettySize=auto;html=1;exitX=0;exitY=0;exitDx=0;exitDy=0;entryX=0.5;entryY=1;entryDx=0;entryDy=0;endArrow=none;endFill=0;" parent="zKRFpH8LsfMyVIRQmf_E-7" source="zKRFpH8LsfMyVIRQmf_E-71" target="zKRFpH8LsfMyVIRQmf_E-46" edge="1">
          <mxGeometry relative="1" as="geometry" />
        </mxCell>
        <mxCell id="RezQsv1CiJIYr9o7iqg_-11" value="*:1" style="edgeLabel;html=1;align=center;verticalAlign=middle;resizable=0;points=[];" parent="RezQsv1CiJIYr9o7iqg_-6" vertex="1" connectable="0">
          <mxGeometry x="0.1317" y="-3" relative="1" as="geometry">
            <mxPoint x="-16" as="offset" />
          </mxGeometry>
        </mxCell>
        <mxCell id="RezQsv1CiJIYr9o7iqg_-7" style="edgeStyle=orthogonalEdgeStyle;rounded=0;orthogonalLoop=1;jettySize=auto;html=1;exitX=1;exitY=0.5;exitDx=0;exitDy=0;entryX=0.5;entryY=1;entryDx=0;entryDy=0;endArrow=none;endFill=0;" parent="zKRFpH8LsfMyVIRQmf_E-7" source="zKRFpH8LsfMyVIRQmf_E-71" target="zKRFpH8LsfMyVIRQmf_E-76" edge="1">
          <mxGeometry relative="1" as="geometry" />
        </mxCell>
        <mxCell id="RezQsv1CiJIYr9o7iqg_-14" value="1:*" style="edgeLabel;html=1;align=center;verticalAlign=middle;resizable=0;points=[];" parent="RezQsv1CiJIYr9o7iqg_-7" vertex="1" connectable="0">
          <mxGeometry x="-0.5882" y="-1" relative="1" as="geometry">
            <mxPoint x="5" y="-1" as="offset" />
          </mxGeometry>
        </mxCell>
        <mxCell id="RezQsv1CiJIYr9o7iqg_-207" style="edgeStyle=orthogonalEdgeStyle;rounded=0;orthogonalLoop=1;jettySize=auto;html=1;exitX=0.5;exitY=1;exitDx=0;exitDy=0;entryX=1;entryY=1;entryDx=0;entryDy=0;endArrow=none;endFill=0;" parent="zKRFpH8LsfMyVIRQmf_E-7" source="zKRFpH8LsfMyVIRQmf_E-71" target="zKRFpH8LsfMyVIRQmf_E-22" edge="1">
          <mxGeometry relative="1" as="geometry">
            <Array as="points">
              <mxPoint x="720" y="804.5" />
              <mxPoint x="625" y="804.5" />
              <mxPoint x="625" y="629.5" />
            </Array>
          </mxGeometry>
        </mxCell>
        <mxCell id="RezQsv1CiJIYr9o7iqg_-208" value="*:*" style="edgeLabel;html=1;align=center;verticalAlign=middle;resizable=0;points=[];" parent="RezQsv1CiJIYr9o7iqg_-207" vertex="1" connectable="0">
          <mxGeometry x="-0.1368" y="1" relative="1" as="geometry">
            <mxPoint y="-52" as="offset" />
          </mxGeometry>
        </mxCell>
        <mxCell id="zKRFpH8LsfMyVIRQmf_E-71" value="Servico" style="swimlane;fontStyle=0;childLayout=stackLayout;horizontal=1;startSize=26;horizontalStack=0;resizeParent=1;resizeParentMax=0;resizeLast=0;collapsible=1;marginBottom=0;whiteSpace=wrap;html=1;fillColor=#ffe6cc;strokeColor=#d79b00;" parent="zKRFpH8LsfMyVIRQmf_E-7" vertex="1">
          <mxGeometry x="670" y="755" width="170" height="130" as="geometry">
            <mxRectangle x="725" y="887.5" width="100" height="30" as="alternateBounds" />
          </mxGeometry>
        </mxCell>
        <mxCell id="zKRFpH8LsfMyVIRQmf_E-72" value="+ nome: String" style="text;align=left;verticalAlign=top;spacingLeft=4;spacingRight=4;overflow=hidden;rotatable=0;points=[[0,0.5],[1,0.5]];portConstraint=eastwest;whiteSpace=wrap;html=1;fillColor=#ffe6cc;strokeColor=#d79b00;" parent="zKRFpH8LsfMyVIRQmf_E-71" vertex="1">
          <mxGeometry y="26" width="170" height="26" as="geometry" />
        </mxCell>
        <mxCell id="zKRFpH8LsfMyVIRQmf_E-73" value="+ codigo: String" style="text;align=left;verticalAlign=top;spacingLeft=4;spacingRight=4;overflow=hidden;rotatable=0;points=[[0,0.5],[1,0.5]];portConstraint=eastwest;whiteSpace=wrap;html=1;fillColor=#ffe6cc;strokeColor=#d79b00;" parent="zKRFpH8LsfMyVIRQmf_E-71" vertex="1">
          <mxGeometry y="52" width="170" height="26" as="geometry" />
        </mxCell>
        <mxCell id="zKRFpH8LsfMyVIRQmf_E-74" value="+ descricao: String" style="text;align=left;verticalAlign=top;spacingLeft=4;spacingRight=4;overflow=hidden;rotatable=0;points=[[0,0.5],[1,0.5]];portConstraint=eastwest;whiteSpace=wrap;html=1;fillColor=#ffe6cc;strokeColor=#d79b00;" parent="zKRFpH8LsfMyVIRQmf_E-71" vertex="1">
          <mxGeometry y="78" width="170" height="26" as="geometry" />
        </mxCell>
        <mxCell id="zKRFpH8LsfMyVIRQmf_E-75" value="+ Linkmagem: String" style="text;align=left;verticalAlign=top;spacingLeft=4;spacingRight=4;overflow=hidden;rotatable=0;points=[[0,0.5],[1,0.5]];portConstraint=eastwest;whiteSpace=wrap;html=1;fillColor=#ffe6cc;strokeColor=#d79b00;" parent="zKRFpH8LsfMyVIRQmf_E-71" vertex="1">
          <mxGeometry y="104" width="170" height="26" as="geometry" />
        </mxCell>
        <mxCell id="zKRFpH8LsfMyVIRQmf_E-76" value="PrecoServico" style="swimlane;fontStyle=0;childLayout=stackLayout;horizontal=1;startSize=26;horizontalStack=0;resizeParent=1;resizeParentMax=0;resizeLast=0;collapsible=1;marginBottom=0;whiteSpace=wrap;html=1;fillColor=#ffe6cc;strokeColor=#d79b00;" parent="zKRFpH8LsfMyVIRQmf_E-7" vertex="1">
          <mxGeometry x="870" y="505.5" width="170" height="130" as="geometry">
            <mxRectangle x="924.25" y="363" width="100" height="30" as="alternateBounds" />
          </mxGeometry>
        </mxCell>
        <mxCell id="zKRFpH8LsfMyVIRQmf_E-77" value="+ preco: Float" style="text;align=left;verticalAlign=top;spacingLeft=4;spacingRight=4;overflow=hidden;rotatable=0;points=[[0,0.5],[1,0.5]];portConstraint=eastwest;whiteSpace=wrap;html=1;fillColor=#ffe6cc;strokeColor=#d79b00;" parent="zKRFpH8LsfMyVIRQmf_E-76" vertex="1">
          <mxGeometry y="26" width="170" height="26" as="geometry" />
        </mxCell>
        <mxCell id="zKRFpH8LsfMyVIRQmf_E-81" value="+ data: Date" style="text;align=left;verticalAlign=top;spacingLeft=4;spacingRight=4;overflow=hidden;rotatable=0;points=[[0,0.5],[1,0.5]];portConstraint=eastwest;whiteSpace=wrap;html=1;fillColor=#ffe6cc;strokeColor=#d79b00;" parent="zKRFpH8LsfMyVIRQmf_E-76" vertex="1">
          <mxGeometry y="52" width="170" height="26" as="geometry" />
        </mxCell>
        <mxCell id="zKRFpH8LsfMyVIRQmf_E-80" value="+ tipoAnimal: TipoAnimal" style="text;align=left;verticalAlign=top;spacingLeft=4;spacingRight=4;overflow=hidden;rotatable=0;points=[[0,0.5],[1,0.5]];portConstraint=eastwest;whiteSpace=wrap;html=1;fillColor=#ffe6cc;strokeColor=#d79b00;" parent="zKRFpH8LsfMyVIRQmf_E-76" vertex="1">
          <mxGeometry y="78" width="170" height="26" as="geometry" />
        </mxCell>
        <mxCell id="zKRFpH8LsfMyVIRQmf_E-78" value="+ porteAnimal: PorteAnimal" style="text;align=left;verticalAlign=top;spacingLeft=4;spacingRight=4;overflow=hidden;rotatable=0;points=[[0,0.5],[1,0.5]];portConstraint=eastwest;whiteSpace=wrap;html=1;fillColor=#ffe6cc;strokeColor=#d79b00;" parent="zKRFpH8LsfMyVIRQmf_E-76" vertex="1">
          <mxGeometry y="104" width="170" height="26" as="geometry" />
        </mxCell>
        <mxCell id="RezQsv1CiJIYr9o7iqg_-130" value="AtendimentoCliente" style="swimlane;whiteSpace=wrap;html=1;" parent="1" vertex="1">
          <mxGeometry x="2868" y="960" width="1080" height="1120" as="geometry" />
        </mxCell>
        <mxCell id="RezQsv1CiJIYr9o7iqg_-131" value="Entities" style="shape=folder;fontStyle=1;spacingTop=10;tabWidth=40;tabHeight=14;tabPosition=left;html=1;whiteSpace=wrap;align=center;verticalAlign=top;" parent="RezQsv1CiJIYr9o7iqg_-130" vertex="1">
          <mxGeometry x="60" y="207.5" width="960" height="705" as="geometry" />
        </mxCell>
        <mxCell id="RezQsv1CiJIYr9o7iqg_-230" style="edgeStyle=orthogonalEdgeStyle;rounded=0;orthogonalLoop=1;jettySize=auto;html=1;exitX=0;exitY=0;exitDx=0;exitDy=0;entryX=1;entryY=0;entryDx=0;entryDy=0;endArrow=none;endFill=0;" parent="RezQsv1CiJIYr9o7iqg_-130" source="RezQsv1CiJIYr9o7iqg_-200" target="RezQsv1CiJIYr9o7iqg_-203" edge="1">
          <mxGeometry relative="1" as="geometry">
            <Array as="points">
              <mxPoint x="705" y="299.5" />
              <mxPoint x="331" y="299.5" />
            </Array>
          </mxGeometry>
        </mxCell>
        <mxCell id="RezQsv1CiJIYr9o7iqg_-241" value="1:*" style="edgeLabel;html=1;align=center;verticalAlign=middle;resizable=0;points=[];" parent="RezQsv1CiJIYr9o7iqg_-230" vertex="1" connectable="0">
          <mxGeometry x="-0.0727" y="-1" relative="1" as="geometry">
            <mxPoint x="-14" y="-12" as="offset" />
          </mxGeometry>
        </mxCell>
        <mxCell id="RezQsv1CiJIYr9o7iqg_-200" value="Animal" style="swimlane;fontStyle=0;childLayout=stackLayout;horizontal=1;startSize=26;horizontalStack=0;resizeParent=1;resizeParentMax=0;resizeLast=0;collapsible=1;marginBottom=0;whiteSpace=wrap;html=1;fillColor=#f8cecc;strokeColor=#b85450;" parent="RezQsv1CiJIYr9o7iqg_-130" vertex="1">
          <mxGeometry x="705" y="356" width="170" height="78" as="geometry">
            <mxRectangle x="329.25" y="409" width="100" height="30" as="alternateBounds" />
          </mxGeometry>
        </mxCell>
        <mxCell id="RezQsv1CiJIYr9o7iqg_-201" value="+ dataAdmissao: Date" style="text;align=left;verticalAlign=top;spacingLeft=4;spacingRight=4;overflow=hidden;rotatable=0;points=[[0,0.5],[1,0.5]];portConstraint=eastwest;whiteSpace=wrap;html=1;fillColor=#f8cecc;strokeColor=#b85450;" parent="RezQsv1CiJIYr9o7iqg_-200" vertex="1">
          <mxGeometry y="26" width="170" height="26" as="geometry" />
        </mxCell>
        <mxCell id="RezQsv1CiJIYr9o7iqg_-202" value="+ dataDemissao: Date" style="text;align=left;verticalAlign=top;spacingLeft=4;spacingRight=4;overflow=hidden;rotatable=0;points=[[0,0.5],[1,0.5]];portConstraint=eastwest;whiteSpace=wrap;html=1;fillColor=#f8cecc;strokeColor=#b85450;" parent="RezQsv1CiJIYr9o7iqg_-200" vertex="1">
          <mxGeometry y="52" width="170" height="26" as="geometry" />
        </mxCell>
        <mxCell id="RezQsv1CiJIYr9o7iqg_-203" value="Cliente" style="swimlane;fontStyle=0;childLayout=stackLayout;horizontal=1;startSize=26;horizontalStack=0;resizeParent=1;resizeParentMax=0;resizeLast=0;collapsible=1;marginBottom=0;whiteSpace=wrap;html=1;fillColor=#f8cecc;strokeColor=#b85450;" parent="RezQsv1CiJIYr9o7iqg_-130" vertex="1">
          <mxGeometry x="161" y="369" width="170" height="52" as="geometry">
            <mxRectangle x="329.25" y="409" width="100" height="30" as="alternateBounds" />
          </mxGeometry>
        </mxCell>
        <mxCell id="RezQsv1CiJIYr9o7iqg_-197" value="Venda" style="swimlane;fontStyle=0;childLayout=stackLayout;horizontal=1;startSize=26;horizontalStack=0;resizeParent=1;resizeParentMax=0;resizeLast=0;collapsible=1;marginBottom=0;whiteSpace=wrap;html=1;fillColor=#f8cecc;strokeColor=#b85450;" parent="RezQsv1CiJIYr9o7iqg_-130" vertex="1">
          <mxGeometry x="398" y="740.5" width="236" height="104" as="geometry">
            <mxRectangle x="500" y="874" width="100" height="30" as="alternateBounds" />
          </mxGeometry>
        </mxCell>
        <mxCell id="RezQsv1CiJIYr9o7iqg_-198" value="+ data: Date" style="text;align=left;verticalAlign=top;spacingLeft=4;spacingRight=4;overflow=hidden;rotatable=0;points=[[0,0.5],[1,0.5]];portConstraint=eastwest;whiteSpace=wrap;html=1;fillColor=#f8cecc;strokeColor=#b85450;" parent="RezQsv1CiJIYr9o7iqg_-197" vertex="1">
          <mxGeometry y="26" width="236" height="26" as="geometry" />
        </mxCell>
        <mxCell id="RezQsv1CiJIYr9o7iqg_-236" value="+ valor: Float" style="text;align=left;verticalAlign=top;spacingLeft=4;spacingRight=4;overflow=hidden;rotatable=0;points=[[0,0.5],[1,0.5]];portConstraint=eastwest;whiteSpace=wrap;html=1;fillColor=#f8cecc;strokeColor=#b85450;" parent="RezQsv1CiJIYr9o7iqg_-197" vertex="1">
          <mxGeometry y="52" width="236" height="26" as="geometry" />
        </mxCell>
        <mxCell id="RezQsv1CiJIYr9o7iqg_-199" value="+ metodoPagamento: MetodoPagamento" style="text;align=left;verticalAlign=top;spacingLeft=4;spacingRight=4;overflow=hidden;rotatable=0;points=[[0,0.5],[1,0.5]];portConstraint=eastwest;whiteSpace=wrap;html=1;fillColor=#f8cecc;strokeColor=#b85450;" parent="RezQsv1CiJIYr9o7iqg_-197" vertex="1">
          <mxGeometry y="78" width="236" height="26" as="geometry" />
        </mxCell>
        <mxCell id="RezQsv1CiJIYr9o7iqg_-191" value="Agendamento" style="swimlane;fontStyle=0;childLayout=stackLayout;horizontal=1;startSize=26;horizontalStack=0;resizeParent=1;resizeParentMax=0;resizeLast=0;collapsible=1;marginBottom=0;whiteSpace=wrap;html=1;fillColor=#f8cecc;strokeColor=#b85450;" parent="RezQsv1CiJIYr9o7iqg_-130" vertex="1">
          <mxGeometry x="386" y="489" width="260" height="130" as="geometry">
            <mxRectangle x="491" y="621.5" width="100" height="30" as="alternateBounds" />
          </mxGeometry>
        </mxCell>
        <mxCell id="RezQsv1CiJIYr9o7iqg_-234" value="+ dataAgendamento: Date" style="text;align=left;verticalAlign=top;spacingLeft=4;spacingRight=4;overflow=hidden;rotatable=0;points=[[0,0.5],[1,0.5]];portConstraint=eastwest;whiteSpace=wrap;html=1;fillColor=#f8cecc;strokeColor=#b85450;" parent="RezQsv1CiJIYr9o7iqg_-191" vertex="1">
          <mxGeometry y="26" width="260" height="26" as="geometry" />
        </mxCell>
        <mxCell id="RezQsv1CiJIYr9o7iqg_-235" value="+ statusAgendamento: StatusAgendamento" style="text;align=left;verticalAlign=top;spacingLeft=4;spacingRight=4;overflow=hidden;rotatable=0;points=[[0,0.5],[1,0.5]];portConstraint=eastwest;whiteSpace=wrap;html=1;fillColor=#f8cecc;strokeColor=#b85450;" parent="RezQsv1CiJIYr9o7iqg_-191" vertex="1">
          <mxGeometry y="52" width="260" height="26" as="geometry" />
        </mxCell>
        <mxCell id="RezQsv1CiJIYr9o7iqg_-237" value="+ pago: Boolean" style="text;align=left;verticalAlign=top;spacingLeft=4;spacingRight=4;overflow=hidden;rotatable=0;points=[[0,0.5],[1,0.5]];portConstraint=eastwest;whiteSpace=wrap;html=1;fillColor=#f8cecc;strokeColor=#b85450;" parent="RezQsv1CiJIYr9o7iqg_-191" vertex="1">
          <mxGeometry y="78" width="260" height="26" as="geometry" />
        </mxCell>
        <mxCell id="RezQsv1CiJIYr9o7iqg_-192" value="+ observacoesServico: String" style="text;align=left;verticalAlign=top;spacingLeft=4;spacingRight=4;overflow=hidden;rotatable=0;points=[[0,0.5],[1,0.5]];portConstraint=eastwest;whiteSpace=wrap;html=1;fillColor=#f8cecc;strokeColor=#b85450;" parent="RezQsv1CiJIYr9o7iqg_-191" vertex="1">
          <mxGeometry y="104" width="260" height="26" as="geometry" />
        </mxCell>
        <mxCell id="RezQsv1CiJIYr9o7iqg_-231" style="edgeStyle=orthogonalEdgeStyle;rounded=0;orthogonalLoop=1;jettySize=auto;html=1;exitX=1;exitY=1;exitDx=0;exitDy=0;entryX=0;entryY=0;entryDx=0;entryDy=0;endArrow=none;endFill=0;" parent="RezQsv1CiJIYr9o7iqg_-130" source="RezQsv1CiJIYr9o7iqg_-203" target="RezQsv1CiJIYr9o7iqg_-191" edge="1">
          <mxGeometry relative="1" as="geometry">
            <Array as="points">
              <mxPoint x="331" y="489" />
            </Array>
          </mxGeometry>
        </mxCell>
        <mxCell id="RezQsv1CiJIYr9o7iqg_-240" value="1:*" style="edgeLabel;html=1;align=center;verticalAlign=middle;resizable=0;points=[];" parent="RezQsv1CiJIYr9o7iqg_-231" vertex="1" connectable="0">
          <mxGeometry x="-0.1735" y="2" relative="1" as="geometry">
            <mxPoint x="22" y="17" as="offset" />
          </mxGeometry>
        </mxCell>
        <mxCell id="RezQsv1CiJIYr9o7iqg_-229" style="edgeStyle=orthogonalEdgeStyle;rounded=0;orthogonalLoop=1;jettySize=auto;html=1;exitX=0;exitY=1;exitDx=0;exitDy=0;entryX=1;entryY=0;entryDx=0;entryDy=0;endArrow=none;endFill=0;" parent="RezQsv1CiJIYr9o7iqg_-130" source="RezQsv1CiJIYr9o7iqg_-200" target="RezQsv1CiJIYr9o7iqg_-191" edge="1">
          <mxGeometry relative="1" as="geometry">
            <Array as="points">
              <mxPoint x="705" y="489.5" />
            </Array>
          </mxGeometry>
        </mxCell>
        <mxCell id="RezQsv1CiJIYr9o7iqg_-242" value="*:1" style="edgeLabel;html=1;align=center;verticalAlign=middle;resizable=0;points=[];" parent="RezQsv1CiJIYr9o7iqg_-229" vertex="1" connectable="0">
          <mxGeometry x="-0.4925" y="2" relative="1" as="geometry">
            <mxPoint x="-32" y="26" as="offset" />
          </mxGeometry>
        </mxCell>
        <mxCell id="RezQsv1CiJIYr9o7iqg_-232" style="edgeStyle=orthogonalEdgeStyle;rounded=0;orthogonalLoop=1;jettySize=auto;html=1;exitX=0.5;exitY=1;exitDx=0;exitDy=0;entryX=0.5;entryY=0;entryDx=0;entryDy=0;endArrow=none;endFill=0;" parent="RezQsv1CiJIYr9o7iqg_-130" source="RezQsv1CiJIYr9o7iqg_-191" target="RezQsv1CiJIYr9o7iqg_-197" edge="1">
          <mxGeometry relative="1" as="geometry" />
        </mxCell>
        <mxCell id="W68Msy_g0Jg9ASUMIQTX-1" value="1:1" style="edgeLabel;html=1;align=center;verticalAlign=middle;resizable=0;points=[];" vertex="1" connectable="0" parent="RezQsv1CiJIYr9o7iqg_-232">
          <mxGeometry x="0.2101" y="-1" relative="1" as="geometry">
            <mxPoint as="offset" />
          </mxGeometry>
        </mxCell>
        <mxCell id="RezQsv1CiJIYr9o7iqg_-247" style="edgeStyle=orthogonalEdgeStyle;rounded=0;orthogonalLoop=1;jettySize=auto;html=1;exitX=0.5;exitY=1;exitDx=0;exitDy=0;exitPerimeter=0;entryX=0;entryY=0;entryDx=1440;entryDy=14;entryPerimeter=0;" parent="1" source="RezQsv1CiJIYr9o7iqg_-188" target="RezQsv1CiJIYr9o7iqg_-226" edge="1">
          <mxGeometry relative="1" as="geometry">
            <mxPoint x="2540" y="1110" as="targetPoint" />
          </mxGeometry>
        </mxCell>
        <mxCell id="RezQsv1CiJIYr9o7iqg_-188" value="Infrastructure (CGD)" style="shape=folder;fontStyle=1;spacingTop=10;tabWidth=40;tabHeight=14;tabPosition=left;html=1;whiteSpace=wrap;verticalAlign=top;" parent="1" vertex="1">
          <mxGeometry x="2300" y="750" width="460" height="210" as="geometry" />
        </mxCell>
        <mxCell id="RezQsv1CiJIYr9o7iqg_-245" style="edgeStyle=orthogonalEdgeStyle;rounded=0;orthogonalLoop=1;jettySize=auto;html=1;exitX=0.5;exitY=1;exitDx=0;exitDy=0;exitPerimeter=0;" parent="1" source="RezQsv1CiJIYr9o7iqg_-189" target="RezQsv1CiJIYr9o7iqg_-188" edge="1">
          <mxGeometry relative="1" as="geometry" />
        </mxCell>
        <mxCell id="RezQsv1CiJIYr9o7iqg_-189" value="Application (CLN)" style="shape=folder;fontStyle=1;spacingTop=10;tabWidth=40;tabHeight=14;tabPosition=left;html=1;whiteSpace=wrap;verticalAlign=top;" parent="1" vertex="1">
          <mxGeometry x="2300" y="510" width="460" height="170" as="geometry" />
        </mxCell>
        <mxCell id="RezQsv1CiJIYr9o7iqg_-246" style="edgeStyle=orthogonalEdgeStyle;rounded=0;orthogonalLoop=1;jettySize=auto;html=1;exitX=0.5;exitY=1;exitDx=0;exitDy=0;exitPerimeter=0;" parent="1" source="RezQsv1CiJIYr9o7iqg_-190" target="RezQsv1CiJIYr9o7iqg_-189" edge="1">
          <mxGeometry relative="1" as="geometry" />
        </mxCell>
        <mxCell id="RezQsv1CiJIYr9o7iqg_-190" value="View (CIU)" style="shape=folder;fontStyle=1;spacingTop=10;tabWidth=40;tabHeight=14;tabPosition=left;html=1;whiteSpace=wrap;verticalAlign=top;" parent="1" vertex="1">
          <mxGeometry x="2300" y="240" width="460" height="160" as="geometry" />
        </mxCell>
        <mxCell id="RezQsv1CiJIYr9o7iqg_-228" style="edgeStyle=orthogonalEdgeStyle;rounded=0;orthogonalLoop=1;jettySize=auto;html=1;exitX=0;exitY=1;exitDx=0;exitDy=0;entryX=1;entryY=0;entryDx=0;entryDy=0;endArrow=none;endFill=0;" parent="1" source="RezQsv1CiJIYr9o7iqg_-191" target="zKRFpH8LsfMyVIRQmf_E-71" edge="1">
          <mxGeometry relative="1" as="geometry">
            <Array as="points">
              <mxPoint x="3254" y="1580" />
              <mxPoint x="3200" y="1580" />
              <mxPoint x="3200" y="1950" />
              <mxPoint x="1830" y="1950" />
              <mxPoint x="1830" y="1735" />
              <mxPoint x="1860" y="1735" />
            </Array>
          </mxGeometry>
        </mxCell>
        <mxCell id="RezQsv1CiJIYr9o7iqg_-243" value="*:*" style="edgeLabel;html=1;align=center;verticalAlign=middle;resizable=0;points=[];" parent="RezQsv1CiJIYr9o7iqg_-228" vertex="1" connectable="0">
          <mxGeometry x="0.0929" y="1" relative="1" as="geometry">
            <mxPoint x="66" y="-11" as="offset" />
          </mxGeometry>
        </mxCell>
        <mxCell id="RezQsv1CiJIYr9o7iqg_-213" value="Users" style="shape=folder;fontStyle=1;spacingTop=10;tabWidth=40;tabHeight=14;tabPosition=left;html=1;whiteSpace=wrap;verticalAlign=top;" parent="1" vertex="1">
          <mxGeometry x="2395" y="1219" width="280" height="440" as="geometry" />
        </mxCell>
        <mxCell id="RezQsv1CiJIYr9o7iqg_-224" style="edgeStyle=orthogonalEdgeStyle;rounded=0;orthogonalLoop=1;jettySize=auto;html=1;exitX=0.5;exitY=1;exitDx=0;exitDy=0;entryX=0.5;entryY=0;entryDx=0;entryDy=0;startArrow=block;startFill=0;endArrow=none;endFill=0;" parent="1" source="RezQsv1CiJIYr9o7iqg_-217" target="RezQsv1CiJIYr9o7iqg_-214" edge="1">
          <mxGeometry relative="1" as="geometry" />
        </mxCell>
        <mxCell id="zKRFpH8LsfMyVIRQmf_E-32" style="edgeStyle=orthogonalEdgeStyle;rounded=0;orthogonalLoop=1;jettySize=auto;html=1;exitX=0.5;exitY=1;exitDx=0;exitDy=0;entryX=0.5;entryY=0;entryDx=0;entryDy=0;endArrow=none;endFill=0;startArrow=block;startFill=0;fillColor=#ffe6cc;strokeColor=#d79b00;" parent="1" source="RezQsv1CiJIYr9o7iqg_-214" target="zKRFpH8LsfMyVIRQmf_E-22" edge="1">
          <mxGeometry relative="1" as="geometry">
            <mxPoint x="2555" y="2142" as="sourcePoint" />
            <Array as="points">
              <mxPoint x="2540" y="1910" />
              <mxPoint x="2150" y="1910" />
              <mxPoint x="2150" y="1440" />
              <mxPoint x="1380" y="1440" />
            </Array>
          </mxGeometry>
        </mxCell>
        <mxCell id="RezQsv1CiJIYr9o7iqg_-225" style="edgeStyle=orthogonalEdgeStyle;rounded=0;orthogonalLoop=1;jettySize=auto;html=1;exitX=0.5;exitY=1;exitDx=0;exitDy=0;entryX=0.5;entryY=1;entryDx=0;entryDy=0;startArrow=block;startFill=0;endArrow=none;endFill=0;fillColor=#f8cecc;strokeColor=#b85450;" parent="1" source="RezQsv1CiJIYr9o7iqg_-214" target="RezQsv1CiJIYr9o7iqg_-203" edge="1">
          <mxGeometry relative="1" as="geometry">
            <Array as="points">
              <mxPoint x="2540" y="1910" />
              <mxPoint x="3114" y="1910" />
            </Array>
          </mxGeometry>
        </mxCell>
        <mxCell id="RezQsv1CiJIYr9o7iqg_-217" value="Pessoa" style="swimlane;fontStyle=0;childLayout=stackLayout;horizontal=1;startSize=26;horizontalStack=0;resizeParent=1;resizeParentMax=0;resizeLast=0;collapsible=1;marginBottom=0;whiteSpace=wrap;html=1;" parent="1" vertex="1">
          <mxGeometry x="2455" y="1270" width="170" height="182" as="geometry">
            <mxRectangle x="2915" y="1460" width="80" height="30" as="alternateBounds" />
          </mxGeometry>
        </mxCell>
        <mxCell id="RezQsv1CiJIYr9o7iqg_-218" value="+ nome: String" style="text;align=left;verticalAlign=top;spacingLeft=4;spacingRight=4;overflow=hidden;rotatable=0;points=[[0,0.5],[1,0.5]];portConstraint=eastwest;whiteSpace=wrap;html=1;" parent="RezQsv1CiJIYr9o7iqg_-217" vertex="1">
          <mxGeometry y="26" width="170" height="26" as="geometry" />
        </mxCell>
        <mxCell id="RezQsv1CiJIYr9o7iqg_-219" value="+ rg: String" style="text;align=left;verticalAlign=top;spacingLeft=4;spacingRight=4;overflow=hidden;rotatable=0;points=[[0,0.5],[1,0.5]];portConstraint=eastwest;whiteSpace=wrap;html=1;" parent="RezQsv1CiJIYr9o7iqg_-217" vertex="1">
          <mxGeometry y="52" width="170" height="26" as="geometry" />
        </mxCell>
        <mxCell id="RezQsv1CiJIYr9o7iqg_-220" value="+ cpf: String" style="text;align=left;verticalAlign=top;spacingLeft=4;spacingRight=4;overflow=hidden;rotatable=0;points=[[0,0.5],[1,0.5]];portConstraint=eastwest;whiteSpace=wrap;html=1;" parent="RezQsv1CiJIYr9o7iqg_-217" vertex="1">
          <mxGeometry y="78" width="170" height="26" as="geometry" />
        </mxCell>
        <mxCell id="RezQsv1CiJIYr9o7iqg_-221" value="+ dataNascimento: Date" style="text;align=left;verticalAlign=top;spacingLeft=4;spacingRight=4;overflow=hidden;rotatable=0;points=[[0,0.5],[1,0.5]];portConstraint=eastwest;whiteSpace=wrap;html=1;" parent="RezQsv1CiJIYr9o7iqg_-217" vertex="1">
          <mxGeometry y="104" width="170" height="26" as="geometry" />
        </mxCell>
        <mxCell id="RezQsv1CiJIYr9o7iqg_-222" value="+ telefone: String" style="text;align=left;verticalAlign=top;spacingLeft=4;spacingRight=4;overflow=hidden;rotatable=0;points=[[0,0.5],[1,0.5]];portConstraint=eastwest;whiteSpace=wrap;html=1;" parent="RezQsv1CiJIYr9o7iqg_-217" vertex="1">
          <mxGeometry y="130" width="170" height="26" as="geometry" />
        </mxCell>
        <mxCell id="RezQsv1CiJIYr9o7iqg_-223" value="+ endereco: String" style="text;align=left;verticalAlign=top;spacingLeft=4;spacingRight=4;overflow=hidden;rotatable=0;points=[[0,0.5],[1,0.5]];portConstraint=eastwest;whiteSpace=wrap;html=1;" parent="RezQsv1CiJIYr9o7iqg_-217" vertex="1">
          <mxGeometry y="156" width="170" height="26" as="geometry" />
        </mxCell>
        <mxCell id="RezQsv1CiJIYr9o7iqg_-214" value="Usuario" style="swimlane;fontStyle=0;childLayout=stackLayout;horizontal=1;startSize=26;horizontalStack=0;resizeParent=1;resizeParentMax=0;resizeLast=0;collapsible=1;marginBottom=0;whiteSpace=wrap;html=1;" parent="1" vertex="1">
          <mxGeometry x="2455" y="1512" width="170" height="78" as="geometry">
            <mxRectangle x="2920" y="1702" width="100" height="30" as="alternateBounds" />
          </mxGeometry>
        </mxCell>
        <mxCell id="RezQsv1CiJIYr9o7iqg_-215" value="+ email: String" style="text;align=left;verticalAlign=top;spacingLeft=4;spacingRight=4;overflow=hidden;rotatable=0;points=[[0,0.5],[1,0.5]];portConstraint=eastwest;whiteSpace=wrap;html=1;" parent="RezQsv1CiJIYr9o7iqg_-214" vertex="1">
          <mxGeometry y="26" width="170" height="26" as="geometry" />
        </mxCell>
        <mxCell id="RezQsv1CiJIYr9o7iqg_-216" value="+ senha: String" style="text;align=left;verticalAlign=top;spacingLeft=4;spacingRight=4;overflow=hidden;rotatable=0;points=[[0,0.5],[1,0.5]];portConstraint=eastwest;whiteSpace=wrap;html=1;" parent="RezQsv1CiJIYr9o7iqg_-214" vertex="1">
          <mxGeometry y="52" width="170" height="26" as="geometry" />
        </mxCell>
        <mxCell id="RezQsv1CiJIYr9o7iqg_-248" value="Pages" style="shape=folder;fontStyle=1;spacingTop=10;tabWidth=40;tabHeight=14;tabPosition=left;html=1;whiteSpace=wrap;verticalAlign=top;" parent="1" vertex="1">
          <mxGeometry x="2355" y="295" width="120" height="50" as="geometry" />
        </mxCell>
        <mxCell id="RezQsv1CiJIYr9o7iqg_-249" value="Controllers" style="shape=folder;fontStyle=1;spacingTop=10;tabWidth=40;tabHeight=14;tabPosition=left;html=1;whiteSpace=wrap;verticalAlign=top;" parent="1" vertex="1">
          <mxGeometry x="2575" y="295" width="120" height="50" as="geometry" />
        </mxCell>
        <mxCell id="RezQsv1CiJIYr9o7iqg_-250" value="Services" style="shape=folder;fontStyle=1;spacingTop=10;tabWidth=40;tabHeight=14;tabPosition=left;html=1;whiteSpace=wrap;verticalAlign=top;" parent="1" vertex="1">
          <mxGeometry x="2575" y="830" width="120" height="50" as="geometry" />
        </mxCell>
        <mxCell id="RezQsv1CiJIYr9o7iqg_-251" value="Repositories" style="shape=folder;fontStyle=1;spacingTop=10;tabWidth=40;tabHeight=14;tabPosition=left;html=1;whiteSpace=wrap;verticalAlign=top;" parent="1" vertex="1">
          <mxGeometry x="2355" y="830" width="120" height="50" as="geometry" />
        </mxCell>
        <mxCell id="W68Msy_g0Jg9ASUMIQTX-2" value="UseCases" style="shape=folder;fontStyle=1;spacingTop=10;tabWidth=40;tabHeight=14;tabPosition=left;html=1;whiteSpace=wrap;verticalAlign=top;" vertex="1" parent="1">
          <mxGeometry x="2475" y="570" width="120" height="50" as="geometry" />
        </mxCell>
      </root>
    </mxGraphModel>
  </diagram>
</mxfile>
